<svg xmlns="http://www.w3.org/2000/svg" viewBox="0 0 117.59 70.06"><defs><style>.cls-1{fill:#fedd00;}.cls-2{fill:#0a67b2;}</style></defs><title>Asset 3</title><g id="Layer_2" data-name="Layer 2"><g id="Layer_1-2" data-name="Layer 1"><rect class="cls-1" width="117.54" height="56.12"/><path class="cls-2" d="M33.08,19.57c-.54-.18-1.14-.36-1.82-.55a22,22,0,0,0-2.26-.5,19.4,19.4,0,0,0-2.77-.21,12.77,12.77,0,0,0-3.61.53,12.31,12.31,0,0,0-3.35,1.61,11.63,11.63,0,0,0-2.8,2.72A12.9,12.9,0,0,0,14.56,27a16.61,16.61,0,0,0-.7,5,15.18,15.18,0,0,0,.8,5.13,11.6,11.6,0,0,0,2.12,3.69,11.08,11.08,0,0,0,2.95,2.4A13.11,13.11,0,0,0,23,44.55a14.13,14.13,0,0,0,3.19.4,21.68,21.68,0,0,0,2.93-.21c.89-.15,1.7-.32,2.43-.52s1.37-.39,1.94-.59V40.78q-.8.36-1.8.72a15.53,15.53,0,0,1-5.1.88,10.49,10.49,0,0,1-4.52-.92A8.31,8.31,0,0,1,19.05,39a9.91,9.91,0,0,1-1.73-3.41,13.44,13.44,0,0,1-.55-3.91,13.73,13.73,0,0,1,.56-3.93,10.93,10.93,0,0,1,1.76-3.47,8.6,8.6,0,0,1,3-2.48,9.37,9.37,0,0,1,4.27-.95,12.51,12.51,0,0,1,2.63.27,14.46,14.46,0,0,1,2.19.64c.66.26,1.3.52,1.91.8v-3"/><path class="cls-2" d="M58.57,40l-.78.62a11.59,11.59,0,0,1-1.06.76,8.87,8.87,0,0,1-1.07.64,2.26,2.26,0,0,1-.8.27.55.55,0,0,1-.36-.1.62.62,0,0,1-.15-.19,3.08,3.08,0,0,1,0-.5c0-.27,0-.57,0-.9v-14a22.93,22.93,0,0,0-.09-2.5,6.51,6.51,0,0,0-.43-1.86,6.05,6.05,0,0,0-1.08-1.63,5.78,5.78,0,0,0-1.86-1.33,9.61,9.61,0,0,0-2.3-.72,11.79,11.79,0,0,0-5,.07,13.86,13.86,0,0,0-2.28.73,19.18,19.18,0,0,0-1.86.89l-1.4.82v2.79a27.91,27.91,0,0,1,2.58-1.68,10.88,10.88,0,0,1,2.49-1,10.39,10.39,0,0,1,2.81-.36,7.45,7.45,0,0,1,3.36.66A3.79,3.79,0,0,1,51,23.21a6.06,6.06,0,0,1,.51,2.63v3.25c-.6,0-1.38.09-2.34.17s-2,.26-3.11.49a20.37,20.37,0,0,0-3.36,1,12.63,12.63,0,0,0-3.08,1.65,7.91,7.91,0,0,0-2.24,2.54,7.47,7.47,0,0,0-.87,3.59,6,6,0,0,0,.56,2.55,6.34,6.34,0,0,0,1.52,2,6.83,6.83,0,0,0,2.21,1.36,7.37,7.37,0,0,0,2.67.5,10.67,10.67,0,0,0,2.73-.36,11.51,11.51,0,0,0,2.28-.86,16.77,16.77,0,0,0,1.78-1c.5-.35.93-.66,1.25-.93a15.54,15.54,0,0,0,.21,1.69,2.21,2.21,0,0,0,.52,1.11,1.51,1.51,0,0,0,1.15.4,4.8,4.8,0,0,0,2.11-.7,34.81,34.81,0,0,0,3-2V40m-7-.63c-.37.35-.8.72-1.28,1.11a13.07,13.07,0,0,1-1.62,1.09,10,10,0,0,1-1.94.84,8.05,8.05,0,0,1-2.28.33,6.36,6.36,0,0,1-3.3-1,4.15,4.15,0,0,1-1.27-1.3,3.76,3.76,0,0,1-.51-1.94,5,5,0,0,1,.45-2.11A5.94,5.94,0,0,1,41,34.68a8.35,8.35,0,0,1,1.67-1.33,11.94,11.94,0,0,1,1.89-1,12.44,12.44,0,0,1,2.53-.7,23.37,23.37,0,0,1,2.49-.3c.79,0,1.45-.08,2-.09Z"/><path class="cls-2" d="M80,21.33c-.33-.29-.7-.6-1.12-.95a14.19,14.19,0,0,0-1.38-1,8.38,8.38,0,0,0-1.59-.78,5.57,5.57,0,0,0-1.73-.31,5.81,5.81,0,0,0-2.49.6,10.42,10.42,0,0,0-2.26,1.47,17.33,17.33,0,0,0-1.92,1.91c-.58.67-1.08,1.3-1.5,1.88s-.74,1-1,1.38V18.83H62.33v25.6h2.74V28.35a30.51,30.51,0,0,1,1.81-2.67,18,18,0,0,1,2.05-2.32,9.38,9.38,0,0,1,2.18-1.63,4.82,4.82,0,0,1,2.23-.62,4.34,4.34,0,0,1,1.86.47,9.49,9.49,0,0,1,1.73,1.09c.55.43,1,.83,1.49,1.23L80,21.33"/><path class="cls-2" d="M103.73,30.63a19.79,19.79,0,0,0-.21-2.74,11.48,11.48,0,0,0-.87-2.91,10.83,10.83,0,0,0-1.36-2.33,10.6,10.6,0,0,0-2.13-2.16,10.49,10.49,0,0,0-3-1.57,11.65,11.65,0,0,0-3.83-.61,11.42,11.42,0,0,0-4.94,1.08,11.05,11.05,0,0,0-3.69,2.87,13.12,13.12,0,0,0-2.31,4.16,15,15,0,0,0-.8,4.89,15.73,15.73,0,0,0,.52,4.05,14.11,14.11,0,0,0,1.56,3.71,12.34,12.34,0,0,0,2.58,3,11.46,11.46,0,0,0,3.57,2.07,13.46,13.46,0,0,0,4.54.76,16.6,16.6,0,0,0,3.93-.47,15,15,0,0,0,3.26-1.24,16,16,0,0,0,2.68-1.72V38.44c-.38.34-.87.73-1.46,1.17a15.1,15.1,0,0,1-2.07,1.29A13.07,13.07,0,0,1,97,42a12.75,12.75,0,0,1-3.34.43,10.07,10.07,0,0,1-3-.44A9.37,9.37,0,0,1,88,40.59a9.55,9.55,0,0,1-2.32-2.3A10.4,10.4,0,0,1,84.13,35a14.66,14.66,0,0,1-.47-4.35h20.07M84,28.46A10.23,10.23,0,0,1,85.19,25a8.77,8.77,0,0,1,2-2.39,8.34,8.34,0,0,1,2.52-1.41,8.18,8.18,0,0,1,2.62-.46,8,8,0,0,1,3.87,1A7.45,7.45,0,0,1,99,24.36,10,10,0,0,1,100,26.58a15.78,15.78,0,0,1,.48,1.88Z"/><rect class="cls-2" x="80.65" y="11.69" width="23.08" height="2.65"/><polygon class="cls-2" points="0 62.03 1.07 62.03 1.07 65.25 5.08 65.25 5.08 62.03 6.15 62.03 6.15 69.83 5.08 69.83 5.08 66.18 1.07 66.18 1.07 69.83 0 69.83 0 62.03"/><polygon class="cls-2" points="8.59 62.03 14.25 62.03 14.25 62.98 9.62 62.98 9.62 65.35 13.9 65.35 13.9 66.26 9.62 66.26 9.62 68.9 14.33 68.9 14.33 69.83 8.59 69.83 8.59 62.03"/><path class="cls-2" d="M18.67,62h1.2l2.83,7.8H21.54l-.81-2.34H17.66l-.84,2.34H15.73Zm1.76,4.6-1.21-3.45L18,66.63Z"/><polygon class="cls-2" points="24.3 62.03 25.36 62.03 25.36 68.9 29.28 68.9 29.28 69.83 24.3 69.83 24.3 62.03"/><polygon class="cls-2" points="35.88 62.03 35.88 62.96 33.25 62.96 33.25 69.83 32.18 69.83 32.18 62.96 29.55 62.96 29.55 62.03 35.88 62.03"/><polygon class="cls-2" points="37.53 62.03 38.6 62.03 38.6 65.25 42.61 65.25 42.61 62.03 43.68 62.03 43.68 69.83 42.61 69.83 42.61 66.18 38.6 66.18 38.6 69.83 37.53 69.83 37.53 62.03"/><rect class="cls-2" x="49.93" y="62.03" width="1.07" height="7.8"/><polygon class="cls-2" points="53.37 62.03 54.62 62.03 58.51 68.33 58.51 62.03 59.52 62.03 59.52 69.83 58.33 69.83 54.38 63.53 54.38 69.83 53.37 69.83 53.37 62.03"/><path class="cls-2" d="M62.57,67.31a2.3,2.3,0,0,0,.3,1.08,2,2,0,0,0,1.79.78,3.11,3.11,0,0,0,1-.17,1.2,1.2,0,0,0,.91-1.18,1,1,0,0,0-.38-.91A3.73,3.73,0,0,0,65,66.45l-1-.24a4.58,4.58,0,0,1-1.42-.52,1.64,1.64,0,0,1-.72-1.46,2.28,2.28,0,0,1,.71-1.73,2.78,2.78,0,0,1,2-.67,3.43,3.43,0,0,1,2,.59,2.17,2.17,0,0,1,.84,1.9h-1a2.13,2.13,0,0,0-.32-1,1.89,1.89,0,0,0-1.58-.61,1.77,1.77,0,0,0-1.28.4,1.21,1.21,0,0,0-.4.91.91.91,0,0,0,.47.84,6.72,6.72,0,0,0,1.37.43l1.06.24a3.26,3.26,0,0,1,1.18.5,1.87,1.87,0,0,1,.73,1.59,2,2,0,0,1-.92,1.85,4.09,4.09,0,0,1-2.14.56,3.15,3.15,0,0,1-2.22-.74,2.55,2.55,0,0,1-.79-2Z"/><path class="cls-2" d="M70.93,62v4.82a2.72,2.72,0,0,0,.33,1.41,1.67,1.67,0,0,0,1.6.85,1.88,1.88,0,0,0,1.84-.91A2.89,2.89,0,0,0,75,66.85V62H76v4.38a5.25,5.25,0,0,1-.38,2.22,3.28,3.28,0,0,1-5.39,0,5.08,5.08,0,0,1-.39-2.22V62Z"/><path class="cls-2" d="M78.43,62H82a3.37,3.37,0,0,1,1.44.26,1.84,1.84,0,0,1,1.08,1.84,2,2,0,0,1-.29,1.15,2.11,2.11,0,0,1-.81.72,1.52,1.52,0,0,1,.69.48,1.75,1.75,0,0,1,.26,1l0,1a3.25,3.25,0,0,0,.07.67.65.65,0,0,0,.34.48v.17H83.5a1.15,1.15,0,0,1-.08-.26,4.67,4.67,0,0,1,0-.62l-.07-1.3a1.09,1.09,0,0,0-.55-1,2.13,2.13,0,0,0-.92-.15H79.49v3.35H78.43Zm3.43,3.57A1.94,1.94,0,0,0,83,65.3a1.21,1.21,0,0,0,.42-1.07,1.18,1.18,0,0,0-.59-1.14,2,2,0,0,0-.84-.15H79.49V65.6Z"/><path class="cls-2" d="M89.09,62h1.19l2.84,7.8H92l-.82-2.34H88.08l-.84,2.34H86.15Zm1.75,4.6-1.2-3.45-1.25,3.45Z"/><polygon class="cls-2" points="94.72 62.03 95.97 62.03 99.86 68.33 99.86 62.03 100.87 62.03 100.87 69.83 99.68 69.83 95.73 63.53 95.73 69.83 94.72 69.83 94.72 62.03"/><path class="cls-2" d="M108.75,62.6a2.76,2.76,0,0,1,.9,1.77h-1a2.18,2.18,0,0,0-.68-1.2,2.2,2.2,0,0,0-1.45-.44,2.31,2.31,0,0,0-1.83.81A3.79,3.79,0,0,0,104,66a3.66,3.66,0,0,0,.63,2.23,2.19,2.19,0,0,0,1.87.85,2,2,0,0,0,1.75-.9A3.57,3.57,0,0,0,108.7,67h1a3.52,3.52,0,0,1-.91,2.06,3.2,3.2,0,0,1-2.48,1,3.24,3.24,0,0,1-2.25-.83,4.27,4.27,0,0,1-1.21-3.36,4.33,4.33,0,0,1,.91-2.83,3.29,3.29,0,0,1,2.69-1.21,3.07,3.07,0,0,1,2.27.79"/><polygon class="cls-2" points="111.85 62.03 117.51 62.03 117.51 62.98 112.88 62.98 112.88 65.35 117.16 65.35 117.16 66.26 112.88 66.26 112.88 68.9 117.59 68.9 117.59 69.83 111.85 69.83 111.85 62.03"/></g></g></svg>